<svg width="200" height="230" viewBox="0 0 200 230" fill="none" xmlns="http://www.w3.org/2000/svg">
  <circle cx="100" cy="115" r="90" fill="#161B22"/>
  <path d="M100 25L118 78L170 50L140 92L190 110L140 128L170 170L118 142L100 195L82 142L30 170L60 128L10 110L60 92L30 50L82 78L100 25Z" fill="#FF4757"/>
  <circle cx="100" cy="110" r="34" fill="#FF6B81"/>
  <circle cx="100" cy="110" r="20" fill="#FFA502"/>
  <circle cx="90" cy="104" r="4.5" fill="#0D1117"/>
  <circle cx="110" cy="104" r="4.5" fill="#0D1117"/>
  <path d="M90 120 Q100 128 110 120" stroke="#0D1117" stroke-width="2.5" fill="none" stroke-linecap="round"/>
  <circle cx="92" cy="96" r="5" fill="#FFF8E7" opacity="0.6"/>
</svg>
