<svg width="200" height="230" viewBox="0 0 200 230" fill="none" xmlns="http://www.w3.org/2000/svg">
  <circle cx="100" cy="115" r="90" fill="#161B22"/>
  <path d="M100 20L120 75L175 45L142 88L195 108L142 128L175 170L120 142L100 200L80 142L25 170L58 128L5 108L58 88L25 45L80 75L100 20Z" fill="#FF4757"/>
  <circle cx="100" cy="108" r="36" fill="#FF6B81"/>
  <circle cx="100" cy="108" r="22" fill="#FFA502"/>
  <circle cx="91" cy="102" r="4.5" fill="#0D1117"/>
  <circle cx="109" cy="102" r="4.5" fill="#0D1117"/>
  <path d="M88 116 Q100 128 112 116" stroke="#0D1117" stroke-width="3" fill="none" stroke-linecap="round"/>
  <circle cx="92" cy="94" r="6" fill="#FFF8E7" opacity="0.5"/>
  <path d="M60 55L68 65L82 48" stroke="#4CAF50" stroke-width="4" fill="none" stroke-linecap="round" stroke-linejoin="round"/>
</svg>
