<svg width="200" height="230" viewBox="0 0 200 230" fill="none" xmlns="http://www.w3.org/2000/svg">
  <circle cx="100" cy="115" r="90" fill="#161B22"/>
  <path d="M100 28L116 76L162 52L136 90L185 108L136 126L162 164L116 140L100 192L84 140L38 164L64 126L15 108L64 90L38 52L84 76L100 28Z" fill="#FF6B81"/>
  <circle cx="100" cy="110" r="32" fill="#FFA502"/>
  <circle cx="100" cy="110" r="18" fill="#FFF8E7"/>
  <circle cx="92" cy="106" r="3.5" fill="#0D1117"/>
  <circle cx="108" cy="106" r="3.5" fill="#0D1117"/>
  <path d="M94 118 Q100 122 106 118" stroke="#0D1117" stroke-width="2" fill="none" stroke-linecap="round"/>
  <rect x="130" y="70" width="30" height="40" rx="3" fill="#30363D"/>
  <line x1="136" y1="80" x2="154" y2="80" stroke="#8B949E" stroke-width="2"/>
  <line x1="136" y1="87" x2="154" y2="87" stroke="#8B949E" stroke-width="2"/>
  <line x1="136" y1="94" x2="148" y2="94" stroke="#8B949E" stroke-width="2"/>
</svg>
