<svg width="200" height="200" viewBox="0 0 200 200" fill="none" xmlns="http://www.w3.org/2000/svg">
  <circle cx="100" cy="100" r="80" fill="#FFA502" opacity="0.1"/>
  <path d="M100 18L116 69L166 43L137 84L185 100L137 116L166 157L116 131L100 182L84 131L34 157L63 116L15 100L63 84L34 43L84 69L100 18Z" fill="#FF4757"/>
  <circle cx="100" cy="100" r="30" fill="#FF6B81"/>
  <circle cx="100" cy="100" r="17" fill="#FFA502"/>
  <circle cx="92" cy="95" r="3.5" fill="#0D1117"/>
  <circle cx="108" cy="95" r="3.5" fill="#0D1117"/>
  <path d="M92 108 Q100 114 108 108" stroke="#0D1117" stroke-width="2" fill="none" stroke-linecap="round"/>
  <line x1="150" y1="70" x2="175" y2="50" stroke="#FF4757" stroke-width="3" stroke-linecap="round"/>
  <path d="M175 50L170 58L178 55Z" fill="#FF4757"/>
</svg>
